<?xml version="1.0" encoding="iso-8859-1"?>
<!-- Generator: Adobe Illustrator 19.0.0, SVG Export Plug-In . SVG Version: 6.00 Build 0)  -->
<svg version="1.1" id="Capa_1" xmlns="http://www.w3.org/2000/svg" xmlns:xlink="http://www.w3.org/1999/xlink" x="0px" y="0px"
	 viewBox="0 0 512 512" style="enable-background:new 0 0 512 512;" xml:space="preserve">
<g>
	<g>
		<path d="M52.513,139.722v232.557h52.513V139.722H52.513z M90.022,357.275H67.516V154.725h22.505V357.275z"/>
	</g>
</g>
<g>
	<g>
		<path d="M30.007,214.74v15.004H0v52.513h30.007v15.004h15.004v-82.52H30.007z M30.007,267.253H15.004v-22.505h15.004V267.253z"/>
	</g>
</g>
<g>
	<g>
		<path d="M30.007,304.762v15.004c0,4.136-3.365,7.502-7.502,7.502C10.095,327.267,0,337.364,0,349.773
			c0,12.409,10.095,22.505,22.505,22.505s22.505-10.096,22.505-22.505v-45.011H30.007z M30.007,349.773
			c0,4.136-3.365,7.502-7.502,7.502s-7.502-3.366-7.502-7.502c0-4.136,3.365-7.502,7.502-7.502c2.629,0,5.154-0.453,7.502-1.285
			V349.773z"/>
	</g>
</g>
<g>
	<g>
		<path d="M406.974,139.722v229.306h52.513V139.722H406.974z M444.484,354.024h-22.505V154.725h22.505V354.024z"/>
	</g>
</g>
<g>
	<g>
		<path d="M489.495,327.267c-4.137,0-7.502-3.366-7.502-7.502v-15.004h-15.004v45.011c0,12.409,10.095,22.505,22.505,22.505
			c12.41,0,22.505-10.096,22.505-22.505C512,337.364,501.905,327.267,489.495,327.267z M489.495,357.275
			c-4.137,0-7.502-3.366-7.502-7.502v-8.787c2.348,0.832,4.873,1.285,7.502,1.285c4.137,0,7.502,3.366,7.502,7.502
			C496.996,353.909,493.632,357.275,489.495,357.275z"/>
	</g>
</g>
<g>
	<g>
		<path d="M481.993,229.744V214.74h-15.004v82.52h15.004v-15.004H512v-52.513H481.993z M496.996,267.253h-15.004v-22.505h15.004
			V267.253z"/>
	</g>
</g>
<g>
	<g>
		<path d="M399.473,154.725v-15.004h-30.007v90.022h-226.93v-90.022h-30.007v15.004h15.004v202.549h-15.004v15.004h30.007v-90.022
			h226.93v90.022h30.007v-15.004h-15.004V154.725H399.473z M369.465,267.253h-13.128v-15.004h-15.004v15.004H142.535v-22.505h15.004
			v15.004h15.004v-15.004h196.923V267.253z"/>
	</g>
</g>
<g>
</g>
<g>
</g>
<g>
</g>
<g>
</g>
<g>
</g>
<g>
</g>
<g>
</g>
<g>
</g>
<g>
</g>
<g>
</g>
<g>
</g>
<g>
</g>
<g>
</g>
<g>
</g>
<g>
</g>
</svg>
