<?xml version="1.0" encoding="iso-8859-1"?>
<!-- Generator: Adobe Illustrator 19.0.0, SVG Export Plug-In . SVG Version: 6.00 Build 0)  -->
<svg version="1.1" id="Layer_1" xmlns="http://www.w3.org/2000/svg" xmlns:xlink="http://www.w3.org/1999/xlink" x="0px" y="0px"
	 viewBox="0 0 512 512" style="enable-background:new 0 0 512 512;" xml:space="preserve">
<g>
	<g>
		<path d="M511.369,216.781c-1.536-6.886-5.683-12.698-11.691-16.35c-40.047-24.337-79.087-38.298-107.119-38.298h-25.651V25.6
			c0-14.114-11.486-25.6-25.6-25.6s-25.6,11.486-25.6,25.6v17.067h-37.21c-3.787-14.505-11.148-25.601-22.523-25.601
			s-18.736,11.096-22.523,25.601h-37.21V25.6c0-14.114-11.486-25.6-25.6-25.6s-25.6,11.486-25.6,25.6v136.533h-25.6
			c-28.023,0-67.063,13.961-107.102,38.298c-6.007,3.652-10.163,9.455-11.699,16.341c-1.536,6.886-0.222,13.909,3.678,19.772
			c7.62,11.443,22.869,14.754,34.722,7.56c37.325-22.716,66.645-30.771,80.401-30.771h25.6v76.8h-8.533
			c-14.114,0-25.6,11.486-25.6,25.6v34.133c0,14.114,11.486,25.6,25.6,25.6h8.533V460.8h-34.134
			c-23.526,0-42.667,19.14-42.667,42.667c0,4.71,3.814,8.533,8.533,8.533h358.4c4.719,0,8.533-3.823,8.533-8.533
			c0-23.526-19.14-42.667-42.667-42.667h-34.133v-85.333h8.533c14.114,0,25.6-11.486,25.6-25.6v-34.133
			c0-14.114-11.486-25.6-25.6-25.6h-8.533v-76.8h25.651c13.756,0,43.076,8.055,80.41,30.771c4.224,2.577,8.883,3.806,13.474,3.806
			c8.277,0,16.341-4.002,21.24-11.366C511.582,230.699,512.888,223.676,511.369,216.781z M324.241,59.733
			c4.719,0,8.533-3.823,8.533-8.533V25.6c0-4.702,3.823-8.533,8.533-8.533s8.533,3.831,8.533,8.533v136.533h-17.067v-76.8
			c0-4.71-3.814-8.533-8.533-8.533H281.25c0.214-2.841,0.325-5.7,0.325-8.534c0-2.834-0.111-5.692-0.325-8.532H324.241z
			 M264.508,162.133v-45.07c6.642-4.016,11.251-12.711,13.989-23.197h37.211v68.267H264.508z M196.241,162.133V93.867h37.211
			c2.738,10.486,7.347,19.181,13.989,23.197v45.07H196.241z M255.975,34.346c1.931,1.524,5.275,7.601,7.152,17.836
			c0.033,0.289,0.081,0.573,0.142,0.853c0.75,4.369,1.239,9.44,1.239,15.231c0,5.794-0.49,10.866-1.24,15.236
			c-0.06,0.272-0.105,0.549-0.138,0.829c-1.876,10.246-5.222,16.33-7.155,17.854c-1.933-1.525-5.279-7.609-7.155-17.854
			c-0.033-0.281-0.079-0.558-0.138-0.829c-0.751-4.37-1.24-9.443-1.24-15.236c0-5.791,0.489-10.862,1.239-15.231
			c0.061-0.28,0.109-0.564,0.142-0.853C250.7,41.947,254.043,35.87,255.975,34.346z M162.108,25.6c0-4.702,3.823-8.533,8.533-8.533
			s8.533,3.831,8.533,8.533v25.6c0,4.71,3.814,8.533,8.533,8.533h42.991c-0.214,2.84-0.325,5.698-0.325,8.532
			c0,2.835,0.111,5.693,0.325,8.534h-42.992c-4.719,0-8.533,3.823-8.533,8.533v76.8h-17.067V25.6z M179.175,213.333v76.797h-17.067
			v-76.797H179.175z M127.975,349.867v-34.133c0-4.702,3.823-8.533,8.533-8.533h68.267v51.2H187.76
			c-0.018,0-0.034-0.003-0.052-0.003h-34.133c-0.018,0-0.034,0.003-0.052,0.003h-17.015
			C131.798,358.4,127.975,354.569,127.975,349.867z M290.108,366.933c0,4.702-3.823,8.533-8.533,8.533h-51.2
			c-4.71,0-8.533-3.831-8.533-8.533v-68.267c0-4.702,3.823-8.533,8.533-8.533h51.2c4.71,0,8.533,3.831,8.533,8.533V366.933z
			 M179.175,375.467v85.331h-17.067v-85.331H179.175z M425.181,494.933H86.766c3.524-9.933,13.013-17.067,24.141-17.067H401.04
			C412.168,477.867,421.657,485.001,425.181,494.933z M196.241,460.8v-85.333h10.002c3.523,9.931,13.009,17.067,24.132,17.067h51.2
			c11.123,0,20.608-7.135,24.132-17.067h10.002V460.8H196.241z M349.841,460.797h-17.067v-85.331h17.067V460.797z M383.975,315.733
			v34.133c0,4.702-3.823,8.533-8.533,8.533h-17.015c-0.018,0-0.034-0.003-0.052-0.003h-34.133c-0.018,0-0.034,0.003-0.052,0.003
			h-17.015v-51.2h68.267C380.152,307.2,383.975,311.032,383.975,315.733z M305.706,290.133
			c-3.523-9.931-13.009-17.067-24.132-17.067h-51.2c-11.123,0-20.608,7.135-24.132,17.067h-10.002v-76.8h119.467v76.8H305.706z
			 M349.841,290.131h-17.067v-76.797h17.067V290.131z M493.483,227.081c-2.543,3.797-7.654,4.89-11.648,2.441
			c-40.311-24.516-72.542-33.254-89.276-33.254h-34.134c-0.017,0-0.034-0.003-0.051-0.003h-34.133c-0.017,0-0.034,0.002-0.051,0.003
			H187.759c-0.017,0-0.034-0.003-0.051-0.003h-34.133c-0.017,0-0.034,0.002-0.051,0.003h-34.083
			c-16.734,0-48.964,8.738-89.267,33.254c-3.977,2.432-9.114,1.374-11.657-2.441c-1.297-1.954-1.724-4.292-1.212-6.605
			c0.512-2.304,1.894-4.25,3.891-5.461c36.898-22.426,73.626-35.814,98.244-35.814h34.133h34.133h136.533h34.133h34.185
			c24.627,0,61.355,13.389,98.253,35.814c1.997,1.212,3.379,3.157,3.891,5.461C495.215,222.788,494.78,225.126,493.483,227.081z"/>
	</g>
</g>
<g>
</g>
<g>
</g>
<g>
</g>
<g>
</g>
<g>
</g>
<g>
</g>
<g>
</g>
<g>
</g>
<g>
</g>
<g>
</g>
<g>
</g>
<g>
</g>
<g>
</g>
<g>
</g>
<g>
</g>
</svg>
