<?xml version="1.0" encoding="iso-8859-1"?>
<!-- Generator: Adobe Illustrator 19.0.0, SVG Export Plug-In . SVG Version: 6.00 Build 0)  -->
<svg version="1.1" id="Layer_1" xmlns="http://www.w3.org/2000/svg" xmlns:xlink="http://www.w3.org/1999/xlink" x="0px" y="0px"
	 viewBox="0 0 512.001 512.001" style="enable-background:new 0 0 512.001 512.001;" xml:space="preserve">
<g>
	<g>
		<path d="M511.441,484.344l-28.143-359.117c-1.877-23.211-9.557-44.314-22.212-61.039c-18.406-24.166-47.531-38.588-77.901-38.588
			H278.524C274.737,11.096,267.375,0,256,0s-18.736,11.096-22.523,25.601H128.816c-30.37,0-59.494,14.421-77.918,38.613
			c-12.638,16.7-20.318,37.803-22.195,61.039L0.56,484.319c-1.143,14.071,9.361,26.445,23.432,27.597
			c0.7,0.06,1.399,0.085,2.099,0.085c13.184,0,24.405-10.155,25.498-23.543l28.143-359.074c1.101-13.508,5.248-25.361,11.998-34.278
			c3.174-4.198,6.699-7.714,10.667-10.641v104.202c-1.57,0.924-3.141,1.858-4.716,2.814c-5.999,3.652-10.146,9.455-11.682,16.341
			c-1.536,6.895-0.222,13.909,3.678,19.772c3.182,4.776,7.691,8.13,12.723,9.902v54.107c-9.931,3.523-17.067,13.009-17.067,24.132
			v34.133c0,11.123,7.135,20.608,17.067,24.132v86.802H102.4c-23.526,0-42.667,19.14-42.667,42.667c0,4.71,3.814,8.533,8.533,8.533
			h119.467c4.719,0,8.533-3.823,8.533-8.533c0-23.526-19.14-42.666-42.666-42.667v-85.333h52.668
			c3.523,9.931,13.009,17.067,24.132,17.067h51.2c11.123,0,20.608-7.135,24.132-17.067H358.4v85.333H358.4
			c-23.526,0-42.667,19.14-42.667,42.667c0,4.71,3.814,8.533,8.533,8.533h119.467c4.719,0,8.533-3.823,8.533-8.533
			c0-23.526-19.14-42.666-42.666-42.667v-86.802c9.931-3.523,17.067-13.009,17.067-24.132v-34.133
			c0-11.123-7.135-20.608-17.067-24.132v-54.089c5.057-1.768,9.586-5.126,12.774-9.92c3.9-5.845,5.205-12.86,3.686-19.763
			c-1.536-6.886-5.683-12.698-11.691-16.35c-1.591-0.967-3.179-1.911-4.767-2.845V84.464c3.968,2.927,7.492,6.443,10.675,10.65
			c6.741,8.909,10.889,20.762,11.989,34.244l28.143,359.134c1.092,13.355,12.314,23.509,25.498,23.509
			c0.7,0,1.399-0.026,2.099-0.085C502.08,510.764,512.584,498.39,511.441,484.344z M358.4,164.026
			c-19.298-7.062-36.886-10.729-51.149-10.425h-42.718V99.998c6.642-4.016,11.252-12.711,13.99-23.198H358.4V164.026z
			 M204.937,153.601c-0.435-0.009-0.87-0.009-1.314-0.009c-14.257,0-31.367,3.646-50.022,10.462v-87.25h79.878
			c2.738,10.485,7.347,19.178,13.988,23.194v53.603H204.937z M256,17.28c1.946,1.536,5.324,7.701,7.192,18.077
			c0.028,0.193,0.055,0.385,0.096,0.574c0.754,4.378,1.246,9.461,1.246,15.269c0,5.792-0.489,10.864-1.24,15.234
			c-0.06,0.276-0.107,0.556-0.14,0.841c-1.877,10.24-5.221,16.321-7.153,17.845c-1.934-1.526-5.283-7.617-7.158-17.874
			c-0.033-0.273-0.077-0.543-0.134-0.807c-0.751-4.371-1.241-9.444-1.241-15.239c0-5.808,0.492-10.891,1.246-15.269
			c0.04-0.188,0.068-0.381,0.096-0.574C250.677,24.981,254.054,18.816,256,17.28z M112.492,66.612
			c-4.335-2.509-9.489-2.543-13.807-0.06c-7.927,4.548-14.839,10.692-20.557,18.253c-8.721,11.511-14.046,26.445-15.411,43.213
			L34.574,487.101c-0.375,4.676-4.224,8.124-9.199,7.808c-4.685-0.384-8.183-4.514-7.799-9.224l28.143-359.083
			c1.613-19.959,8.115-37.973,18.782-52.07c15.189-19.951,39.245-31.863,64.316-31.863h101.909c-0.214,2.84-0.325,5.698-0.325,8.532
			c0,2.836,0.111,5.695,0.325,8.538h-85.659c-4.719,0-8.533,3.814-8.533,8.533v102.715c-5.605,2.496-11.304,5.24-17.07,8.23V78.678
			C119.464,73.729,116.793,69.104,112.492,66.612z M124.399,235.154c4.171-2.538,8.213-4.868,12.134-7.023v62.004h-17.067v-52.647
			C121.154,236.893,122.808,236.121,124.399,235.154z M375.467,228.095c3.939,2.167,8.002,4.508,12.194,7.058
			c1.572,0.956,3.205,1.727,4.872,2.319v52.662h-17.067V228.095z M358.4,290.134h-52.668c-3.523-9.931-13.009-17.067-24.132-17.067
			h-51.2c-11.123,0-20.608,7.135-24.132,17.067H153.6v-70.652c25.224-11.663,43.222-14.883,51.2-14.681h102.451
			c0.085,0,0.171,0,0.256-0.009c7.794-0.277,25.715,2.979,50.893,14.645V290.134z M102.4,315.734c0-4.702,3.823-8.533,8.533-8.533
			h34.133H204.8v51.2h-59.681c-0.018,0-0.034-0.003-0.052-0.003h-34.133c-0.009,0-0.017,0.001-0.026,0.001
			c-4.698-0.014-8.507-3.839-8.507-8.532V315.734z M177.74,494.934H78.259c3.524-9.933,13.013-17.067,24.141-17.067h51.2
			C164.727,477.868,174.216,485.001,177.74,494.934z M136.534,460.798h-17.067v-85.331h17.067V460.798z M281.6,375.468h-51.2
			c-4.71,0-8.533-3.831-8.533-8.533v-68.267c0-4.702,3.823-8.533,8.533-8.533h51.2c4.71,0,8.533,3.831,8.533,8.533v68.267
			C290.134,371.636,286.311,375.468,281.6,375.468z M392.534,375.468v85.331h-17.067v-85.331H392.534z M433.74,494.934h-99.482
			c3.524-9.933,13.013-17.067,24.141-17.067h51.2C420.727,477.868,430.216,485.001,433.74,494.934z M409.6,349.868
			c0,4.693-3.809,8.518-8.507,8.532c-0.009,0-0.017-0.001-0.026-0.001h-34.133c-0.018,0-0.034,0.003-0.052,0.003H307.2v-51.2h59.733
			h34.133c4.71,0,8.533,3.831,8.533,8.533V349.868z M408.175,218.13c-1.531,2.307-4.009,3.602-6.619,3.728
			c-0.163-0.009-0.324-0.025-0.49-0.025c-0.15,0-0.296,0.015-0.443,0.022c-1.396-0.083-2.802-0.5-4.096-1.285
			c-40.934-24.9-72.789-33.289-89.404-32.836H205.056c-16.282-0.375-48.486,7.876-89.523,32.845
			c-1.279,0.778-2.668,1.195-4.05,1.282c-0.183-0.012-0.364-0.028-0.55-0.028c-0.168,0-0.332,0.016-0.498,0.025
			c-2.579-0.15-5.028-1.444-6.559-3.729c-1.289-1.954-1.724-4.292-1.22-6.605c0.521-2.304,1.903-4.241,3.891-5.461
			c2.523-1.533,5.043-3.018,7.558-4.464c0.723-0.289,1.393-0.676,2.002-1.142c33.245-18.819,65.321-29.799,87.635-29.799
			c0.35,0,0.708,0,1.058,0.008h102.588c0.35-0.008,0.7-0.008,1.058-0.008c22.185,0,54.219,10.968,87.441,29.766
			c0.614,0.471,1.291,0.861,2.021,1.153c2.528,1.453,5.061,2.945,7.597,4.486c1.997,1.22,3.379,3.157,3.891,5.47
			C409.908,213.838,409.472,216.176,408.175,218.13z M486.626,494.909c-4.634,0.324-8.815-3.123-9.199-7.782l-28.143-359.134
			c-1.365-16.742-6.69-31.676-15.403-43.179c-5.726-7.569-12.638-13.713-20.557-18.253c-4.326-2.483-9.489-2.458-13.815,0.051
			c-4.301,2.492-6.972,7.117-6.972,12.066v100.515c-5.764-2.987-11.464-5.731-17.07-8.228V68.267c0-4.71-3.814-8.533-8.533-8.533
			h-85.658c0.214-2.841,0.325-5.699,0.325-8.533c0-2.834-0.111-5.692-0.325-8.532h101.909c25.071,0,49.126,11.913,64.299,31.846
			c10.684,14.114,17.186,32.128,18.799,52.07l28.143,359.125C494.809,490.395,491.311,494.525,486.626,494.909z"/>
	</g>
</g>
<g>
</g>
<g>
</g>
<g>
</g>
<g>
</g>
<g>
</g>
<g>
</g>
<g>
</g>
<g>
</g>
<g>
</g>
<g>
</g>
<g>
</g>
<g>
</g>
<g>
</g>
<g>
</g>
<g>
</g>
</svg>
