<svg id="svg2" xmlns="http://www.w3.org/2000/svg" viewBox="0 0 890.8 268.3"><defs><style>.cls-1{fill:#fff;stroke:#0786ff;stroke-linejoin:round;fill-rule:evenodd;}</style></defs><title>Векторный смарт-объект4</title><path id="AL" class="cls-1" d="M1078.4,296.3l-2,3.1.5,1.9h0l1,1-.5,1.9-.1,4.3.7,3,3,2.1.2,1.4,1,.4,2.1-3,.1-2.1,1.6-.9v-1.6l-2.3-1.6-.9-2.6.4-2.1h0l-.5-2.3-1.3-.6-1.3-1.6-1.3.5-.4-1.2Z" transform="translate(-873.9 -80.2)"/><path id="AM" class="cls-1" d="M1219.9,320.9l-.9-4.4-2.5-1.1-2.5-1.7,1-2-3.1-2.2.7-1.5-2.2-1.1-1.4-1.7-6.9,1,1.3,2.2v3.1l4.2,1.5,2.4,1.9,1-.2,1.8,1.7h2.3l.2,1,2.8,3.7,1.8-.2Z" transform="translate(-873.9 -80.2)"/><path id="AT" class="cls-1" d="M1061.1,259.8l-2.3-1.2-2.3.3-4-1.9-1.7.5-2.6,2.5-3.8-2-1.5,2.9-1.7.8,1,4-.4,1.1-1.7-1.3-2.4-.2-3.4,1.2-4.4-.3-.6,1.6-2.6-1.7-1.5.3.2,1.1-.7,1.6,2.3,1.1,2.6.2,3.1.9.5-1.2,4.8-1.1,1.3,2.2,7.2,1.6,4.2.4,2.4-1.4,4.3-.1.9-1.1,1.3-4-1.1-1.3h2.8l.2-2.6-.7-2.1.3-.8Z" transform="translate(-873.9 -80.2)"/><path id="AZ" class="cls-1" d="M1211,314.7l-1,.2,1.2,2.4,3.2,2.9,3.7.9-2.8-3.7-.2-1h-2.3l-1.8-1.7Z" transform="translate(-873.9 -80.2)"/><path id="BE" class="cls-1" d="M1001.6,242l-4.4,1.3-3.6-.5h0l-3.8,1.2.7,2.2,2.2.1,2.4,2.4,3.4,2.9,2.5-.4,4.4,2.8.4-3.5,1.3-.2.4-4.2-2.8-1.4-3.1-2.7Z" transform="translate(-873.9 -80.2)"/><path id="BG" class="cls-1" d="M1122.5,290.1l-3-.7-4-2.2-5.8,1.4-2.3,1.6-7.5-.3-4-1-1.9.5-1.8-2.6-1.1,1.4.7,2.3,2.8,2.6-1.7,1.9-.7,2,.6.7-.7.9,2.8,2,.8,4.1,3.8.2,3.9-1.7,3.9,2.1,4.6-.6-.3-3,5-2,4.5.8L1119,297l1.3-4.4,2.2-2.5Z" transform="translate(-873.9 -80.2)"/><path id="BA" class="cls-1" d="M1063.1,280.7l-2.3.1-1,1.3-1.9-1.4-.9,2.5,2.7,2.9,1.3,1.9,2.5,2.3,2,1.4,2.2,2.5,4.7,2.4.4-3.4,1.5-1.4.9-.6,1.2-.3.5-2.9-2.7-2.3,1-2.7h-1.8l-2.4-1.4-3.5.1-4.4-1Z" transform="translate(-873.9 -80.2)"/><path id="CH" class="cls-1" d="M1025.2,266.4l-5.4-1.9-1,1.4h-4.2l-1.3,1-2.3-.6.2,1.6-3.5,3.5v2.8l2.4-.9,1.8,2.7,2.2,1.3,2.4-.3,2.7-2.1.9,1,2.4-.2.9-2.5,3.8.8,2.1-1.1.3-2.5-2.6-.2-2.3-1.1.7-1.6-.2-1.1Z" transform="translate(-873.9 -80.2)"/><path id="CZ" class="cls-1" d="M1050.3,244.3l-2.1.6-1.4-.7-1.1,1.2-3.4,1.2-1.7,1.5-3.4,1.3,1,1.9.7,2.6,2.6,1.5,2.9,2.6,3.8,2,2.6-2.5,1.7-.5,4,1.9,2.3-.3,2.3,1.2.6-1.4,2.2.1,1.6-.6.1-.6.9-.3.2-1.4,1.1-.3.6-1.1h1.5l-2.6-3.1-3.6-.3-.7-2-3.4-.6-.6,1.5-2.7-1.2.1-1.7-3.7-.6-2.4-1.9Z" transform="translate(-873.9 -80.2)"/><path id="DE" class="cls-1" d="M1044.5,228.1l-2.4-1.9-5.5-2.4-2.5,1.7-4.7,1.1-.1-2.1-4.9-1.4-.2-2.3-3,.9-3.6-.8.4,3.4,1.2,2.2-3,3-1-1.3-3.9.3-.9,1.3,1,2-1,5.6-1.1,2.3h-2.9l1.1,6.4-.4,4.2,1,1.4-.2,2.7,2.4,1.6,7.1,1.2-2.3,4.2-.5,4.5h4.2l1-1.4,5.4,1.9,1.5-.3,2.6,1.7.6-1.6,4.4.3,3.4-1.2,2.4.2,1.7,1.3.4-1.1-1-4,1.7-.8,1.5-2.9-2.9-2.6-2.6-1.5-.7-2.6-1-1.9,3.4-1.3,1.7-1.5,3.4-1.2,1.1-1.2,1.4.7,2.1-.6-2.3-3.9.1-2.1-1.4-3.3-2-2.2,1.2-1.6-1.4-3.1Z" transform="translate(-873.9 -80.2)"/><path id="DK" class="cls-1" d="M1036.8,217l-1.7-3-6.7,2,.9,2.5,5.1,3.4,2.4-4.9Zm-8.6-5.1-2.6-.9-.7-1.6,1.3-2-.1-3-3.6,1.6-1.5,1.7-4,.4-1.2,1.7-.7,1.6.4,6.1,2.1,3.4,3.6.8,3-.9-1.5-3,3.1-4.3,1.4.7,1-2.3Z" transform="translate(-873.9 -80.2)"/><path id="EE" class="cls-1" d="M1094.1,193.3l-5.5.9-5.4,1.6.9,3.4,3.3,2.1,1.5-.8.1,3.5,3.7-1,2.1.7,4.4,2.2h3.8l1.6-1.9-2.5-5.5,2.6-3.4-.9-1h0l-4.6.2Z" transform="translate(-873.9 -80.2)"/><path id="FI" class="cls-1" d="M1094.3,140.2l.8-3.8-5.7-2.1-5.8,1.8-1.1,3.9-3.4,2.4-4.7-1.3-5.3.3-5.1-2.9-2.1,1.4,5.9,2.7,7.2,3.7,1.7,8.4,1.9,2.2,6.4,2.6.9,2.3-2.6,1.2-8.7,6.1-3.3,3.6-1.5,3.3,2.9,5.2-.1,5.7,4.7,1.9,3.1,3.1,7.1-1.2,7.5-2.1,8-.5h0l7.9-7.4,3.3-3.3.9-2.9-7.3-3.9.9-3.7-4.9-4.1,1.7-4.8-6.4-6.3,2.8-4.1-7.2-3.7-.4-3.7Z" transform="translate(-873.9 -80.2)"/><path id="GE" class="cls-1" d="M1200.9,296l-7.5-2.9-7.7-1-4.5-1.1-.5.7,2.2,1.9,3,.7,3.4,2.3,2.1,4.2-.3,2.7,5.4-.3,5.6,3,6.9-1,1.1-1,4.2,1.8,2.8.4.6-.7-3.2-3.4,1.1-.9-3.5-1.4-2.1-2.5-5.1-1.3-2.9,1-1.1-1.2Z" transform="translate(-873.9 -80.2)"/><path id="GR" class="cls-1" d="M1102.8,340.7l-.8,2.8,6.6,1.2v1.1l7.6-.6.5-1.9-2.8.8V343l-3.9-.5-4.1.4-3.1-2.2Zm11.5-37.4-2.7-1.6.3,3-4.6.6-3.9-2.1-3.9,1.7-3.8-.2-1,.2-.7,1.1-2.8-.1-1.9,1.3-3.3.6v1.6l-1.6.9-.1,2.1-2.1,3,.5,1.9,2.9,3.6,2.3,3,1.3,4.3,2.3,5.1,4.6,2.9,3.4-.1-2.4-5.7,3.3-.7-1.9-3.3,5,1.7-.4-3.7-2.7-1.8-3.2-3,1.8-1.4-2.8-3-1.6-3.8.9-1.3,3,3.2h2.9l2.5-1-3.9-3.6,6.1-1.6,2.7.6,3.2.2,1.1-.7,1.2-3.9Z" transform="translate(-873.9 -80.2)"/><path id="HR" class="cls-1" d="M1065.9,276.2l-4-2.6-1.6-.8-3.9,1.7-.3,2.5-1.7.6.2,1.7-2-.1-1.8-1-.8,1-3.5-.2-.2.1v2.2l1.7,2,1.3-2.6,3.3,1,.3,2,2.5,2.6-1,.5,4.6,4.5,4.8,1.8,3.1,2.2,5,2.3h0l.5-1-4.7-2.4-2.2-2.5-2-1.4L1061,288l-1.3-1.9-2.7-2.9.9-2.5,1.9,1.4,1-1.3,2.3-.1,4.4,1,3.5-.1,2.4,1.4h0l1.7-2.3-1.7-1.8-1.5-2.4h0l-1.8.9-4.2-1.2Z" transform="translate(-873.9 -80.2)"/><path id="HU" class="cls-1" d="M1080,259.6l-1.6.4-1,1.5-2.2.7-.6-.4-2.3,1-1.9.2-.3,1.2-4.1.8-1.9-.7-2.6-1.6-.2,2.6h-2.8l1.1,1.3-1.3,4,.8.1,1.2,2.1,1.6.8,4,2.6,4.2,1.2,1.8-.9h0l3.7-1.6,3.2.2,3.8-1.1,2.6-4.3,1.9-4.2,2.9-1.3-.6-1.6-2.9-1.7-1,.6-5.5-1.9Z" transform="translate(-873.9 -80.2)"/><path id="IE" class="cls-1" d="M948.2,227.5l-3.5-1.3-2.9.1,1.1-3.2-.8-3.2-3.7,2.8-6.7,4.7,2.1,6.1-4.2,6.4,6.7.9,8.7-3.6,3.9-5.4-.7-4.3Z" transform="translate(-873.9 -80.2)"/><path id="IS" class="cls-1" d="M916.6,154.4l-6.9-.4-7.3,2.9-5.1-1.5-6.9,3-5.9-3.8-6.5.8-3.6,3.7,8.7,1.3L883,162l-7.8,1.1,8.8,2.7-4.6,2.5,11.7,1.8,5.6.8,3.9-1,12.9-3.9,6.1-4.2-4.4-3.8,1.4-3.6Z" transform="translate(-873.9 -80.2)"/><path id="IT" class="cls-1" d="M1058.7,324.4l-4,.5-5.2.7-6.2-.6-.6,3.4,7.5,3.3,2.7.7,4.2,2.4.9-3.3-.9-2ZM1025,305.5l-2.5,1.9-2.8-.3,1.3,3.6.4,7.6,2.1,1.7,2-2.1,2.4.4.4-8.4-3.3-4.4Zm14.3-34.3L1038,269l-4.8,1.1-.5,1.2-3.1-.9-.3,2.5-2.1,1.1-3.8-.8-.9,2.5-2.4.2-.9-1-2.7,2.1-2.4.3-2.2-1.3-.2,1.7,1.6,2.4-1.7,1.8,1.5,4.8,2.7.8-.5,2.7,2.1-.5,2.8-2.8,2.3-.9,4.2,2.1,2.6.7,1.9,6,3.6,3.6,4.9,4,4.2,2.8,3.9.4,2.3,2.5,3.4,1.2,1.7,2.7,2.2.8,1.8,3.2,2.3,3.7-1.1,1.3-.8,3.5.1,2,2.1-.5,2.5-5.6,2.1-.4.4-3.3-3.9-2.3,1.9-4.1,4.5,1,3.1,3,.8-2.3-.6-1.2-4.7-3.2-3.9-1.9-4.8-2.3,1.4-1.2-1.4-1.4-4,.1-6-5-2.9-5.1-4.9-3.1-1.9-3.1.5-1.8-.4-3,3.9-2.2,4.1.9-1.4-2.7.3-3-7.2-1.6Z" transform="translate(-873.9 -80.2)"/><path id="LT" class="cls-1" d="M1101.3,217l-5-2.9-2.5-.4-.9-1.3-4.4.6-7.9-.4-5,1.9,1.7,5,5,1.1,2.2.9-.2,1.7.6,1.5,2.5.6,1.4,1.9h4.6l4.8-2.2.5-3.4,3.5-2-.9-2.6Z" transform="translate(-873.9 -80.2)"/><path id="LU" class="cls-1" d="M1007.9,254.4l.2-2.7-1-1.4-1.3.2-.4,3.5,1.1.5Z" transform="translate(-873.9 -80.2)"/><path id="MD" class="cls-1" d="M1119.4,279.1l1.2-.7.5-2.1,1.1-2-.5-1.1,1-.5.6.9,3,.2,1.2-.5-1-.6.2-1-2-1.5-1.1-2.6-1.9-1.1v-2.1l-2.5-1.6-2-.3-3.9-1.9-3.2.6-1.1.9,1.6.6,1.8,1.9,1.9,2.6,3.4,3.7.6,2.7-.2,2.7Z" transform="translate(-873.9 -80.2)"/><path id="MK" class="cls-1" d="M1094.9,300.6l-2.8-2-2.4.1-1.7.4-1.1.2-2.9,1-.1,1.2h-.7l-.4,2.1.9,2.6,2.3,1.6,3.3-.6,1.9-1.3,2.8.1.7-1.1,1-.2-.8-4.1Z" transform="translate(-873.9 -80.2)"/><path id="ME" class="cls-1" d="M1080.9,295.6l.4-.6-2-1.2-1.8-.7-.8-.8-1.5-1.1-.9.6-1.5,1.4-.4,3.4-.5,1h0l2.3,1.2,1.6,2.1,1.1.4h0l-.5-1.9,2-3.1.4,1.2,1.3-.5Z" transform="translate(-873.9 -80.2)"/><path id="NL" class="cls-1" d="M1006.4,239.7h2.9l1.1-2.3,1-5.6-1-2-3.9-.2-6.5,2.6-3.9,8.9-2.5,1.7h0l3.6.5,4.4-1.3,3.1,2.7,2.8,1.4-1.1-6.4Z" transform="translate(-873.9 -80.2)"/><path id="NO" class="cls-1" d="M1089.7,128.9l-6.9,1.1-7.3-.3-5.1,4.4-6.7-.3-8.5,2.3-10.1,6.8-6.4,4-8.8,10.7-7.1,7.8-8.1,5.8-11.2,4.8-3.9,3.6,1.9,13.4,1.9,6.3,6.4,3,6-1.4,8.5-6.8,3.3,3.6,1.7-3.3,3.4-4,.9-6.9-3.1-2.9-1-7.6,2.3-5.3,4.3.1,1.3-2.2-1.8-1.9,5.7-7.9,3.4-6.1,2.2-3.9,4,.1.6-3.1,7.9.9v-3.5l2.5-.3,2.1-1.4,5.1,2.9,5.3-.3,4.7,1.3,3.4-2.4,1.1-3.9,5.8-1.8,5.7,2.1-.8,3.8,3.2-.5,6.4-2.2h0l-5.4-3.3,4.8-1.4-13.6-3.9Zm-22.6-33.3-5.6-1-1.9-1.7-7.2.9,2.6,1.5-2.2,1.2,6.7,1.1Zm-25.4-8.3-4.8-1.6-5.1.2-1,1.5h-5l-2.2-1.5-9.3,1.6,3.2,3.5,7.6,3.8,5.7,1.4-3,1.7,8.4,2.9,4.4-.2.9-3.9,3-.9,1.2-3.4,8.5-1.8Zm24.2-3.1-9.1-1-3.2,1.2-5.3-1-10.4,1.2,4.3,2h5.1l.9,1.3,10.6.7,10.1-.5,4.3-2.4Z" transform="translate(-873.9 -80.2)"/><path id="PT" class="cls-1" d="M938.5,331.7l-.4-2.1,2-2.5.8-1.7-1.8-1.9,1.6-4.3-2-3.8,2.2-.5.3-3,.9-.9.2-4.9,2.4-1.7-1.3-3.1-3-.2-.9.8h-3l-1.2-3.1-2.1.9-1.9,1.6.1,2.1.9,2.2.1,2.7-1.3,3.8-.4,2.5-2.2,2.3-.6,4.2,1.2,2.4,2.3.6.4,4-1,5.1,2.8-.7,2.7.9,2.2-1.7Z" transform="translate(-873.9 -80.2)"/><path id="RO" class="cls-1" d="M1109,262.1h-2.1l-1,1.5-3.6.6-1.6.9-2.4-1.5h-3.2l-3.2-.7-1.9,1.3-2.9,1.3-1.9,4.2-2.6,4.3-3.8,1.1,2.9,2.5.8,1.9,3.2,1.5.7,2.5,3.1,1.8,1.4-1.3,1.4.7-1.1,1.1,1,1,1.8,2.6,1.9-.5,4,1,7.5.3,2.3-1.6,5.8-1.4,4,2.2,3,.7.4-7.4,1.6.5,2.3-1.3-.4-1.6-2.4-1.1-2.2,1-2.4-1.1-1.3-2.8.2-2.7-.6-2.7-3.4-3.7-1.9-2.6-1.8-1.9-1.6-.6Z" transform="translate(-873.9 -80.2)"/><path id="RU" class="cls-1" d="M1333.2,90.9l-4.5-4-13.6-4.1-9.4-2.1-6.2.9-5.3,2.9,5.8.8,6.6,3.2,8,1.7,11.5,1.3Zm-178.7-7.3.9-.6-5.7-.9-2.8.7-1.3,1-1.5-1.2-5.2.1-6.2.8,7.7.1-1.1,1.3,4.4,1,3.6-.7.1-.7,2.9-.3ZM1355,93.5l-1.5-1.8L1341,89.1l-3-.3-2.2.5,1.2,6Zm15.2,6.3-9.2-.7,3.4-1.2-8.2-1.5-6.1,1.9-1,2,1.5,2.1-6.9-.1-5.3,2.6-4.3-1.1-9.3.5.3,1.3-9.2.7-4.9,2.4-4.2.2-1.2,3.3,5.5,2.6-7.7.7-9.5-.3-5.8,1.1,4.8,5.4,6.9,4.3-9.6-3-7.9.3-5.1,2,4.5,3.8-4.9-1-2.1-5-4.2-2.8-1.8.1,3.6,3.7-4.6,3.5,8.1,4.2.4,5.4,2.9,2.9,4.7.5.4,3.5,4.4,3.1-1.9,2.6.5,2.7-3.7,1.4-.5,2-5.3-.8,3.5-7.8-.5-3.6-6.7-3.3-3.8-7.3-3.7-3.7-3.6-1.6.8-4.2-2.9-2.9-11.3-1.4-2.1,1,.5,4.7-4.3,4.7,1.2,1.7,4.7,4.1.1,2.6,5.3.5.8,1.1,5.8,2.9-1,2.8-18.5-6.1-6.6-1.7-12.8-1.6-1.2,1.7,5.9,3.1-2.7,3.6-6.4-3.2-5,2.2-7.6.1-2.1,1.9-5.3-.6,2.5-3.3-3.2-.2-12.3,4.6-7.6,2.6.4,3.5-6,1.2-4-1.9-1.2-3,5-.7-3.6-3-12.2-1.8,4.3,3.4-.8,3.2,4.7,3.3-1.1,3.8-4.6-1.9-4-.3-8,5.4,4.2,4.1-3.2,1.4-11.4-3.5-2.1,2.1,3.3,2.4.2,2.7-3.8-1.4-6-1.7-1.9-5.8-1-2.6-8-4,2.9-.7,20.1,4.2,6.4-1.5,3.7-2.9-1.6-3.6-4-2.6-17.6-6.1-11.6-1.3-7.6-3.2-3.6,1.8h0l-6.4,2.2-3.2.5.4,3.7,7.2,3.7-2.8,4.1,6.4,6.3-1.7,4.8,4.9,4.1-.9,3.7,7.3,3.9-.9,2.9-3.3,3.3-7.9,7.4h0l5.3,2.8-4.5,3.2h0l.9,1-2.6,3.4,2.5,5.5-1.6,1.9,2.4,1.4,1,2.8,2.1,3.6,5.2,1.5,1,1.4,2.3-.7,4.8,1.4,1,2.9-.6,1.6,3.7,3.9,2.2,1.1-.1,1.1,3.4,1.1,1.7,1.6-1.6,1.3-3.9-.2-.8.6,1.5,2,2,3.9h0l1.8.2,1-1.4,1.5.3,4.8-.5,3.8,3.4-.9,1.3.7,1.9,4,.2,2.2,2.7.2,1.2,6.6,2.2,3.5-1,3.6,2.9,2.9-.1,7.6,2,.4,1.9-1.3,3.2,1.8,3.4-.3,2.1-4.7.5-2.2,1.7.4,2.8,4.2-1,.4,1.3-6.8,2.6,3.2,2.4-3.2,5.2-3.4,1,5,3.6,6.2,2.4,7.4,5.1.5-.7,4.5,1.1,7.7,1,7.5,2.9,1.1,1.2,2.9-1,5.1,1.3,2.1,2.5,3.5,1.4,1.5.2,4.3,3.8,2.4.4.5-1.5,2.6-2.5h0l-7.3-7.3-.4-4.1-5.9-5.9,3.5-6.3,4.6-1.1,1.4-3.7-2.8-1-.2-3.2-4.2-4.1-3.6.2-5.3-4.3,1.7-4.7-1.7-1.2,2.1-6.8,6,3.6-.7-4.6,8.1-6.6,7.5-.2,11.9,4.3,6.6,2.4,4.3-2.5,7.6-.2,7.3,3.2.8-1.8,6.9.3.2-3-9.4-4.2,3.6-2.9-1.5-1.7,3.9-1.6-5-4.1,1.4-2.1,16.8-2.1,1.7-1.5,10.8-2.2,3.1-2.5,9,1.3,4.3,6.3,4.3-1.5,7,2.1,1.2,3.3,4.4-.4,9.1-5.7-.8,1.9,8.3,4.7,18.1,15.5,1.1-3.3,8.3,3.6,6.2-1.6,3.2,1.1,4.1,3.6,3.9,1.2,3.3,2.6,6-.9,4.3,3.8,1.7-.5,4.7-1,6.6-5.4,5.9-2.9,5.3,1.9,5.1.1,4.7,2.9,5,.2,7.9,1.6,2.4-4.3-4-3.6,1.3-6.4,6.9,2.5,4.8.8,6.6,1.5,3.7,4.6,8.4,2.6,3.9-1.1,5.7-.8,5.4.8,6.5,3,4.9,3.1h4.5l6.7,1,3.6-1.6,5.8-1,4.5-4.4,3.3.7,3.9,2.1,5.5-.5,7.3,2.3,4.4-3.9-1.9-2.7-.1-6.5,1.2-2-2.5-3.3-3.7-1.5,1.7-3,5.1-1.1,6.2-.2,8.5,1.8,5.9,2.3,7.7,6.1,3.8,2.7,4.4,3.7,6.1,6.1,9.9,1.9,8.9,4.5,6,5.8h7.5l2.6-2.5,6.9-1.8,1.3,5.6-.4,2.3,2.8,6.8.6,6-6.8-1.1-2.9,2.2,4.7,5.3,3.8,7.3-2.5.1,1.9,3.1h0l1.4,1.1h0l-.4-2,4-4.5,5.1,3,3.2-.1,4.4-3.6,1-3.7,2.1-7.1,1.9-7.2-1.3-4.3,1-9-5.2-9.9-5.5-7.3-1.3-6.2-4.7-5.1-12.7-6.7-5.6-.4-.3,3-5.8-1.3-5.7-3.8-8-.7,4.9-14.1,3.5-11.5,13.1-1.8,14.9,1,2.5-2.8,7.9.8,4.3,4.3,6.4-.6,8.4-1.6-7.7-3.5v-9.8l9.1-1.9,12.1,7.1,3.6-6.4-3.2-4.7,4.7-.5,6.5,8.1-2.4,4.6-.8,6,.3,7.5-5.7,1.3,2.8,2.7-.1,3.6,6.4,8.3,16,13.4,10.5,8.8,5.7,4.3,1.6-5.7L1734,233l5.7-1.5-5.4-6.9,5-3.1-4.7-2.6-3.4-5,4.1-.2-9-8.6-6.7-1.4-2.9-2.4-1.1-5.6-3.1-3.9,7,.8,1.3-2.5,4.7,2.2,6.1-4.6,11.4,4-1.7-2.6,2-3.6,1.5-4,3.1-.7,6.5-4.3,9.8,1.2-.9-1.5-3.8-2.3-4.1-1.6-9.1-4.6-8.1-3,6.1.4,2-2.5h0l-32.9-21.9-9.4-2.3-15.7-2.6-7.9.3-15.2-1.4,1.8,2.3,8.5,3.4-2.5,1.8-14.2-4.8-6.8.6-9.2-1.1-7,.2-3.9,1.1-7.2-1.6-5.1-3.8-6.5-2.2-9.2-.9-14.7,1-16.1-4-7.8-3-40.1-3.4-2.1,2.2,9.3,4.8-7.5-.7-1,1.5-9.7-1.6-5,1.4-9.3-2.4,3,5.5-8.9-2.1-10-4.1-.4-2.2-6-3.3-9.8-2.6h-6.1l-9.3-.9,4.7,3.9-17.2-.8-3.9-2.3-13.3-.9-5.3.8-.1,1.3-5.8-3.2-2.3.9-7.2-1.2-5.6-.7,1.1-1.5,6.6-2.8,2.3-1.5-2.4-2.5-5.5-1.9-11.5-2.3-10.8-.1-1.9,1.2-4.1-2.4ZM1208,131.4l-9.9-4.3-3.1-4.3,3.3-4.9,2.8-5,8.6-4.7,9.8-2.4,11.3-2.4,1.3-1.5-4.2-1.9-6.6.6-4.9,1.8-11.7.9-10.1,3.1-6.8,2.7,2.5,2.2-6.6,4.4,3.9.7-5.4,4.3,1.6,2.8-3.4,1.1,1.9,2.8,7.9,1.4,2.2,2.3,13.4.7,2.2-.4Zm314-24.7-17.9-2.6-10.2-.2-3.4.9,3.4,3.4,12.4,3.2,4.5-1.2,14.2.2Zm25.2,2.3-11.7-1.3-8.2-.7,1.7,1.6,10.3,2,6.8.4,1.1-2Zm-12.5,9.5-2.5-1.4-8.3-1.9-4.1.5-.8,2,1.1.2,8.8.6Zm162.6,12.3-6-3.6-1.4,2.2,3.5,1.6Zm-612.4,93.9-.6-1.5.2-1.7-2.2-.9-5-1.1-6.3,2-.7,2.6,5.9.7Zm589.7,21.8-7.2-6.2-5.1-6-6.8-5.8-4.9-4-1.3.8,4.4,2.8-1.9,2.8,6.8,8.3,7.8,6,6.4,8.3,2.4,4.6,5.5,6.8,3.8,6,4.6,5.2-.1-4.8,6.5,3.8-3-4.4-9.5-6.3-3.7-9,8.9,2-13.6-10.9Z" transform="translate(-873.9 -80.2)"/><path id="RS" class="cls-1" d="M1085.7,281l-3.2-1.5-.8-1.9-2.9-2.5-3.2-.2-3.7,1.6h0l1.5,2.4,1.7,1.8-1.7,2.3h1.8l-1,2.7,2.7,2.3-.5,2.9-1.2.3,1.5,1.1.8.8,1.8.7,2,1.2-.4.6,1.2-.5.5-2,.9-.4.8.9,1,.4.8,1,.8.3,1.1,1.1h.8l-.5,1.5-.5.7.2.5,1.7-.4,2.4-.1.7-.9-.6-.7.7-2,1.7-1.9-2.8-2.6-.7-2.3,1.1-1.4-1-1,1.1-1.1-1.4-.7-1.4,1.3-3.1-1.8-.7-2.5Z" transform="translate(-873.9 -80.2)"/><path id="SK" class="cls-1" d="M1088.3,256.7l-4.9-2.3-3.4.8-2.4-.6-2.8,1.3-2.7-2.2-1.9.9-.3-.4h-1.5l-.6,1.1-1.1.3-.2,1.4-.9.3-.1.6-1.6.6-2.2-.1-.6,1.4-.3.8.7,2.1,2.6,1.6,1.9.7,4.1-.8.3-1.2,1.9-.2,2.3-1,.6.4,2.2-.7,1-1.5,1.6-.4,5.5,1.9,1-.6.7-2.5,1.1-1.7Z" transform="translate(-873.9 -80.2)"/><path id="SI" class="cls-1" d="M1060.3,272.8l-1.2-2.1-.8-.1-.9,1.1-4.3.1-2.4,1.4-4.2-.4-.3,3,1.4,2.7-1.1.5,3.5.2.8-1,1.8,1,2,.1-.2-1.7,1.7-.6.3-2.5,3.9-1.7Z" transform="translate(-873.9 -80.2)"/><path id="BY" class="cls-1" d="M1113.7,215.2l-5.2-1.5-4.6,2.3-2.6,1,.9,2.6-3.5,2-.5,3.4-4.8,2.2h-4.6l.6,2.7,1.7,2.3.3,2.4-2.7,1.2,1.9,2.9.5,2.7,2.2-.3,2.4-1.6,3.7-.2,5,.5,5.6,1.5,3.8.1,2,.9,1.6-1.1,1.5,1.5,4.3-.3,2,.6-.2-3.1,1.2-1.4,4.1-.3h0l-2-3.9-1.5-2,.8-.6,3.9.2,1.6-1.3-1.7-1.6-3.4-1.1.1-1.1-2.2-1.1-3.7-3.9.6-1.6-1-2.9-4.8-1.4-2.3.7-1-1.4Z" transform="translate(-873.9 -80.2)"/><path id="SE" class="cls-1" d="M1078.6,156.9l-1.9-2.2-1.7-8.4-7.2-3.7-5.9-2.7-2.5.3v3.5l-7.9-.9-.6,3.1-4-.1-2.2,3.9-3.4,6.1-5.7,7.9,1.8,1.9-1.3,2.2-4.3-.1-2.3,5.3,1,7.6,3.1,2.9-.9,6.9-3.4,4-1.7,3.3,4.2,8.4,4.4,6.7,2,5.7,5.3-.3,2.2-4.7,5.7.5,2-5.5.6-10,4.6-1.3,3.3-6.6-4.8-3.3-3.6-4,2.1-8.1,7.7-4.9,6.1-4.5-1.2-3.5,3.4-3.9,7-1.5Z" transform="translate(-873.9 -80.2)"/><path id="PL" class="cls-1" d="M1070.3,224.1l-4.6-.1-.5-1.4-4.8-1.1-5.7,2.1-7.1,2.8-3.1,1.7,1.4,3.1-1.2,1.6,2,2.2,1.4,3.3-.1,2.1,2.3,3.9,2.4,1.9,3.7.6-.1,1.7,2.7,1.2.6-1.5,3.4.6.7,2,3.6.3,2.6,3.1.3.4,1.9-.9,2.7,2.2,2.8-1.3,2.4.6,3.4-.8,4.9,2.3,1.1.4-1.6-2.8,3.8-5.1,2.3-.7.3-1.8-3.1-5.3-.5-2.7-1.9-2.9,2.7-1.2-.3-2.4-1.7-2.3-.6-2.7-1.4-1.9-2.5-.6-8.7.1-5.9-.7Z" transform="translate(-873.9 -80.2)"/><path id="TR" class="cls-1" d="M1167.5,304.7l-9.7-4.4-8.5.2-5.7,1.7-5.6,4-9.9-.8-1.6,4.8-7.9.2-5.1,6.1,3.6,3-2,5,4.2,3.6,3.7,6.4,5.8-.1,5.4,3.5,3.6-.8.9-2.7,5.7.2,4.6,3.5,8-.7,3.1-3.7,4.6,1.5,3.2-.6-1.7,2.4,2.3,3,1.2-1.4,1.2-1.5-.1-3.6,1.9,1.3,5.5-1.8,3,1.2h4.3l5.7-2.5,2.8.2,5.9-1.1,2.1-1,6.2.9,2.1,1.6,2.3-1.1h0l-3.7-5.2.7-2-2.9-7.3,3.3-1.8-2.4-1.9-4.2-1.5v-3.1l-1.3-2.2-5.6-3-5.4.3-5.5,3.2-4.5-.6-5.8,1-7.8-2.4Zm-49.6,4,2-1.9,6.1-.4.7-1.5-4.7-2-.9-2.4-4.5-.8-5,2,2.7,1.6-1.2,3.9-1.1.7.1,1.3,1.9,2.9,3.9-3.4Z" transform="translate(-873.9 -80.2)"/><path id="UA" class="cls-1" d="M1139.4,236.8l-4.8.5-1.5-.3-1,1.4-1.8-.2h0l-4.1.3-1.2,1.4.2,3.1-2-.6-4.3.3-1.5-1.5-1.6,1.1-2-.9-3.8-.1-5.6-1.5-5-.5-3.7.2-2.4,1.6-2.2.3,3.1,5.3-.3,1.8-2.3.7-3.8,5.1,1.6,2.8-1.1-.4-1.1,1.7-.7,2.5,2.9,1.7.6,1.6,1.9-1.3,3.2.7h3.2l2.4,1.5,1.6-.9,3.6-.6,1-1.5h2.1l1.1-.9,3.2-.6,3.9,1.9,2,.3,2.5,1.6v2.1l1.9,1.1,1.1,2.6,2,1.5-.2,1,1,.6-1.2.5-3-.2-.6-.9-1,.5.5,1.1-1.1,2-.5,2.1-1.2.7,2.4,1.1,2.2-1,2.4,1.1,3.3-4.6,1.3-3.4,4.5-.8.7,2.4,8,1.5,1.7,1.4-4.5,2.1-.7,1.2,5.8,1.8-.6,2.9,3,1.3,6.3-3.6,5.3-1.1.6-2.2-5.1.4-2.7-1.5-1-3.9,3.9-2.3,4.6-.3,3-2,3.9-.5-.4-2.8,2.2-1.7,4.7-.5.3-2.1-1.8-3.4,1.3-3.2-.4-1.9-7.6-2-2.9.1-3.6-2.9-3.5,1-6.6-2.2-.2-1.2-2.2-2.7-4-.2-.7-1.9.9-1.3-3.8-3.4Z" transform="translate(-873.9 -80.2)"/><path id="LV" class="cls-1" d="M1103,205.9h-3.8l-4.4-2.2-2.1-.7-3.7,1-.2,4.6-3.6.1-4.4-4.5-4,2.1-1.7,3.7.5,4.5,5-1.9,7.9.4,4.4-.6.9,1.3,2.5.4,5,2.9,2.6-1,4.6-2.3-2.1-3.6-1-2.8-2.4-1.4Z" transform="translate(-873.9 -80.2)"/><path id="FR" class="cls-1" d="M1026.6,299.6l-1.1-5.2-3.2,2.3-1,2.3,1.4,4.2,2.4,1.2Zm-31.5-50.9-2.4-2.4-2.2-.1-.7-2.2-4.3,1.2-1.4,5.1-11.3,4.8-4.6-2.6,1.4,7-8.2-1.6-6.4,1.3.4,4.6,7.5,2.4,3.6,3.1,5.1,6.5-1,12.3-2.7,3.7,2,2.4,9.4,2.8,1.9-1.3,5.7,2.8,6-.8.5-3.7,7.4-2,10,1.6,4.5-3.4.5-2.7-2.7-.8-1.5-4.8,1.7-1.8-1.6-2.4.2-1.7-1.8-2.7-2.4.9v-2.8l3.5-3.5-.2-1.6,2.3.6,1.3-1,.5-4.5,2.3-4.2-7.1-1.2-2.4-1.6-1.4.1-1.1-.5-4.4-2.8-2.5.4-3.4-2.9Z" transform="translate(-873.9 -80.2)"/><path id="ES" class="cls-1" d="M985.9,321.5v-.2h-.5l-.3-.4-.1.2-.1.2v.2h.5l.4.1.1-.1Zm-.8-1.6h.3l.6-.7v-.3l-.3-.2-1.1.2-.2.3v.3l-.3.1-.1.4.1.2.8.1Zm-17.2-28.1-8.2-.2-4.2.3-5.4-1h-6.8l-6.2-1.1-7.4,4.5,2,2.6-.4,4.4,1.9-1.6,2.1-.9,1.2,3.1h3l.9-.8,3,.2,1.3,3.1-2.4,1.7-.2,4.9-.9.9-.3,3-2.2.5,2,3.8-1.6,4.3,1.8,1.9-.8,1.7-2,2.5.4,2.1,4.8,1,1.4,3.7,2,2.2,2.5.6,2.1-2.5,3.3-2.3,5,.1h6.7l3.8-5,3.9-1.3,1.2-4.2,3-2.9-2-3.7,2-5.1,3.1-3.5.5-2.1,6.6-1.3,4.8-4.2-.3-3.5-6,.8-5.7-2.8-1.9,1.3-9.4-2.8-2-2.4Zm26,22.6.1-.3.1-.2.1-.1-.2-.2v-.1l.2-.2-.2-.1-1.3.4-.7.4-2.1,1.5v.3l.1.2h.4l.2.4.4-.4.3-.1.3.1.3.2.1.6.1.2.6.1.9.4.4-.2.5-.3.2-.6.3-.5.3-.5.3-.4-.1-.4-.3-.1-.3-.1-.5.2-.5-.2Zm6-.3.1-.4v-.1l-.5-.7-.9-.3-1,.1-.1.1v.4l.1.1.6.1,1.6.7Z" transform="translate(-873.9 -80.2)"/><path id="AD" class="cls-1" d="M986.3,297.5l.1-.2.1-.2V297l-.2-.1-.7-.2-.3-.1-.2.1-.2.2-.1.3.1.1v.4l.1.2h.4l.3-.1.5-.3Z" transform="translate(-873.9 -80.2)"/><path id="GB" class="cls-1" d="M950.9,223.3l-4.9-3.7-3.9.3.8,3.2-1.1,3.2,2.9-.1,3.5,1.3Zm13-24.3-5.5.5-3.6-.4-3.7,4.8-1.9,6.1,2.2,3,.1,5.8,2.6-2.8,1.4,1.6-1.7,2.7,1,1.6,5.7,1.1h.1l3.1,3.8-.8,3.5h0l-7.1-.6-1,4,2.6,3.3-5.1,1.9,1.3,2.4,7.5,1h0l-4.3,1.3-7.3,6.5,2.5,1.2,3.5-2.3,4.5.7,3.3-2.9,2.2,1.2,8.3-1.7,6.5.1,4.3-3.3-1.9-3.1,2.4-1.8.5-3.9-5.8-1.2-1.3-2.3-2.9-6.9-3.2-1-4.1-7.1-.4-.6-4.8-.4,4.2-5.3,1.3-4.9h-5l-4.7.8,5-6.4Z" transform="translate(-873.9 -80.2)"/><path id="FO" class="cls-1" d="M947.9,182.7v-.3l-.1-.3v-.2h-.1l-.5-.1-.1-.2H947v.2l.1.4.5.4.3.1.1.1-.1-.1Zm.5-2.1v-.1l-.2-.2-.5-.2-.2-.1-.2.1v.2l.1.1.4.1.4.3h.1l.1-.2Zm-2.4-1.9-.2-.1-.5.1H945l.1.3.6.2h.6l.2-.1-.1-.2-.4-.2Zm2.5-.5-.8-.2-.6-.3-1,.1.7,1.1.8.7.4.2v-.3l-.4-.5-.1-.1v-.1l.1-.1h.2l.3.2h.2l.2-.7Zm1-.2-.3-.2-.4-.4v.9h.1l.3.1.3-.4Z" transform="translate(-873.9 -80.2)"/><path id="LI" class="cls-1" d="M1025.3,269.4v-.2l.1-.2-.1-.1-.1-.2-.1-.1v-.2l-.1-.1v-.2l-.1-.1-.2.6v.5l.1.2h.1l.4.1Z" transform="translate(-873.9 -80.2)"/><path id="MT" class="cls-1" d="M1054.5,339.8l-.2-.2-.5-.5-.5-.1.1.6.4.4h.5l.2-.2Zm-1.4-1.2h0v-.2l-.3-.1-.4.1.1.1.3.2Z" transform="translate(-873.9 -80.2)"/><path id="CY" class="cls-1" d="M1150.8,344.2l-.3-.1-.5.2-.4.4-.4.3-.5-.3.2.9.6,1.1.2.3.3.2,1.1.3h.9l.2.1.2.4h.4v-.4l.2-.2.3-.2h.3l.6-.1.6-.2.5-.4.9-1h1.2l.6-.1-.2-.4-.1-.1-.4-.5-.2-.4.1-.6,2.5-1.9.5-.5-.8.2-.6.4-.4.2-.7.4-2.3.8-.8.1h-.8l-1-.1-.9-.2v.7l-.2.6-.6.2-.3-.1Z" transform="translate(-873.9 -80.2)"/></svg>