<svg height="512pt" viewBox="0 0 512 512" width="512pt" xmlns="http://www.w3.org/2000/svg" fill="#0786ff"><path d="m491.351562 157.039062c-10.109374-10.109374-22.550781-16.484374-35.609374-19.160156-16.347657-5.171875-34.148438-16.625-49.488282-31.964844-15.75-15.746093-27.5-34.269531-32.429687-51.015624-2.832031-12.558594-9.105469-24.492188-18.863281-34.25-13.316407-13.316407-31.019532-20.648438-49.851563-20.648438s-36.535156 7.332031-49.851563 20.648438c-25.039062 25.035156-27.261718 64.371093-6.6875 91.957031-3.929687 2.078125-7.507812 4.699219-10.679687 7.871093-3.207031 3.207032-5.851563 6.828126-7.941406 10.804688-12.105469-9.066406-26.75-13.976562-42.144531-13.976562-18.832032 0-36.535157 7.332031-49.851563 20.648437s-20.648437 31.019531-20.648437 49.851563c0 15.375 4.890624 30 13.933593 42.097656-3.898437 2.070312-7.453125 4.683594-10.609375 7.835937-3.222656 3.226563-5.878906 6.871094-7.972656 10.871094-27.589844-20.613281-66.957031-18.40625-92.007812 6.648437-13.316407 13.316407-20.648438 31.019532-20.648438 49.851563s7.332031 36.535156 20.648438 49.851563c8.90625 8.90625 19.621093 14.90625 30.972656 18.042968.617187.265625 1.253906.503906 1.917968.6875 17.042969 4.722656 36.054688 16.667969 52.160157 32.773438 16.640625 16.640625 28.730469 36.183594 33.160156 53.621094.125.480468.273437.949218.441406 1.40625 3.214844 10.9375 9.125 21.246093 17.738281 29.859374 13.316407 13.316407 31.019532 20.648438 49.851563 20.648438s36.535156-7.332031 49.851563-20.648438c25-25 27.257812-64.253906 6.785156-91.832031 4.011718-2.09375 7.667968-4.753906 10.898437-7.984375 3.164063-3.160156 5.777344-6.726562 7.851563-10.636718 12.0625 8.957031 26.617187 13.796874 41.917968 13.796874 18.832032 0 36.535157-7.332031 49.851563-20.648437s20.648437-31.019531 20.648437-49.851563c0-15.324218-4.855468-29.898437-13.839843-41.972656 3.984375-2.089844 7.617187-4.734375 10.832031-7.949218 3.179688-3.179688 5.804688-6.765626 7.886719-10.707032 12.40625 9.191406 27.164062 13.792969 41.925781 13.792969 18.054688 0 36.105469-6.875 49.851562-20.617187 13.316407-13.316407 20.648438-31.019532 20.648438-49.851563s-7.332031-36.535156-20.648438-49.851563zm-84.722656-11.40625c-5.359375 3.046876-10.410156 6.839844-14.980468 11.40625-4.5625 4.566407-8.40625 9.65625-11.511719 15.117188-5.445313-7.484375-11.644531-14.753906-18.507813-21.621094-6.925781-6.925781-14.265625-13.171875-21.820312-18.652344 5.476562-3.109374 10.578125-6.957031 15.152344-11.53125 4.578124-4.582031 8.378906-9.648437 11.433593-15.027343 5.472657 7.539062 11.710938 14.871093 18.644531 21.804687 6.882813 6.882813 14.136719 13.070313 21.589844 18.503906zm-32.414062 82.378907c2.378906 11.125 1.152344 20.15625-3.742188 25.050781-5.539062 5.539062-16.550781 6.421875-30.210937 2.417969-16.746094-4.910157-35.371094-16.746094-51.101563-32.476563-31.871094-31.871094-42.152344-69.214844-30.058594-81.3125 3.285157-3.285156 8.429688-4.917968 14.824219-4.917968 3.683594 0 7.78125.542968 12.171875 1.625.773438.214843 1.546875.425781 2.328125.617187 15.644531 4.421875 34.628907 15.375 51.988281 32.730469 16.734376 16.738281 27.507813 34.976562 32.222657 50.285156.441406 2.019531.964843 4.015625 1.578125 5.980469zm-111.347656 61.390625c-5.445313-7.480469-11.636719-14.746094-18.5-21.605469-6.917969-6.921875-14.253907-13.164063-21.804688-18.644531 5.453125-3.101563 10.535156-6.9375 15.09375-11.496094 4.613281-4.617188 8.488281-9.765625 11.609375-15.296875 5.488281 7.570313 11.746094 14.921875 18.683594 21.859375 6.875 6.875 14.15625 13.082031 21.65625 18.535156-5.519531 3.117188-10.65625 6.984375-15.261719 11.589844-4.546875 4.550781-8.378906 9.617188-11.476562 15.058594zm-9.652344 80.917968c-12.101563 12.097657-49.441406 1.8125-81.3125-30.058593-31.871094-31.871094-42.15625-69.214844-30.058594-81.3125 3.25-3.246094 8.375-4.894531 14.8125-4.894531 3.363281 0 7.085938.453124 11.082031 1.355468 1.386719.410156 2.789063.769532 4.199219 1.089844.039062.011719.078125.019531.117188.03125 16.746093 4.910156 35.371093 16.746094 51.101562 32.476562 15.316406 15.316407 26.921875 33.375 32.054688 49.777344.480468 2.300782 1.078124 4.566406 1.785156 6.796875 2.300781 11.105469.996094 19.960938-3.78125 24.738281zm23.257812-328.457031c7.648438-7.648437 17.816406-11.863281 28.636719-11.863281 10.816406 0 20.988281 4.214844 28.636719 11.863281 5.203125 5.199219 8.679687 11.476563 10.453125 18.117188.089843.59375.203125 1.191406.367187 1.785156.074219.265625.164063.535156.242188.800781 2.542968 12.824219-1.144532 26.652344-11.0625 36.570313-7.648438 7.648437-17.820313 11.863281-28.636719 11.863281-3.28125 0-6.496094-.394531-9.601563-1.144531-.28125-.078125-.5625-.144531-.84375-.21875-6.816406-1.808594-13.070312-5.378907-18.195312-10.5-15.789062-15.789063-15.789062-41.484375.003906-57.273438zm-117.304687 117.304688c7.648437-7.648438 17.820312-11.863281 28.636719-11.863281 10.816406 0 20.988281 4.214843 28.636718 11.863281 7.652344 7.648437 11.863282 17.820312 11.863282 28.636719 0 10.816406-4.210938 20.988281-11.863282 28.636718-7.648437 7.652344-17.820312 11.863282-28.636718 11.863282-2.921876 0-5.796876-.316407-8.589844-.917969-1.1875-.332031-2.367188-.644531-3.535156-.925781-6.164063-1.925782-11.816407-5.320313-16.511719-10.019532-7.648438-7.648437-11.863281-17.820312-11.863281-28.636718 0-10.820313 4.214843-20.988282 11.863281-28.636719zm-129.167969 145.941406c0-10.820313 4.214844-20.988281 11.863281-28.640625 7.894531-7.894531 18.265625-11.839844 28.636719-11.839844s20.742188 3.945313 28.636719 11.839844c7.648437 7.652344 11.863281 17.820312 11.863281 28.640625 0 10.816406-4.214844 20.988281-11.863281 28.636719-15.789063 15.792968-41.484375 15.792968-57.273438 0-7.648437-7.648438-11.863281-17.820313-11.863281-28.636719zm75.035156 61.445313c5.488282-3.082032 10.652344-6.933594 15.316406-11.59375 4.628907-4.632813 8.519532-9.800782 11.644532-15.355469 5.492187 7.574219 11.75 14.929687 18.691406 21.871093 6.882812 6.878907 14.171875 13.089844 21.675781 18.546876-5.542969 3.125-10.703125 7.003906-15.324219 11.625-4.648437 4.652343-8.492187 9.800781-11.566406 15.269531-5.445312-7.480469-11.652344-14.757813-18.558594-21.664063-6.957031-6.953125-14.3125-13.214844-21.878906-18.699218zm130.492188 103.582031c-7.648438 7.648437-17.816406 11.863281-28.636719 11.863281-10.816406 0-20.988281-4.214844-28.636719-11.863281-15.792968-15.789063-15.792968-41.484375 0-57.273438 7.648438-7.648437 17.816406-11.863281 28.636719-11.863281 10.816406 0 20.988281 4.214844 28.636719 11.863281 15.792968 15.789063 15.792968 41.484375 0 57.273438zm117.304687-117.304688c-7.648437 7.648438-17.820312 11.863281-28.636719 11.863281-10.816406 0-20.988281-4.214843-28.636718-11.863281-4.371094-4.367187-7.613282-9.5625-9.59375-15.230469-.449219-1.953124-.957032-3.929687-1.542969-5.933593-.023437-.070313-.050781-.144531-.070313-.21875-.425781-2.371094-.65625-4.796875-.65625-7.253907 0-10.816406 4.214844-20.988281 11.863282-28.640624 7.648437-7.648438 17.820312-11.859376 28.636718-11.859376 10.816407 0 20.988282 4.210938 28.640626 11.859376 7.648437 7.648437 11.859374 17.820312 11.859374 28.640624 0 10.816407-4.214843 20.988282-11.863281 28.636719zm117.304688-117.304687c-15.789063 15.792968-41.484375 15.792968-57.273438 0-4.515625-4.511719-7.820312-9.910156-9.78125-15.792969-.398437-1.6875-.84375-3.394531-1.34375-5.117187-.484375-2.519532-.738281-5.105469-.738281-7.726563 0-10.816406 4.214844-20.988281 11.863281-28.636719 7.894531-7.898437 18.265625-11.84375 28.636719-11.84375 2.277344 0 4.554688.199219 6.808594.582032 1.394531.417968 2.785156.804687 4.171875 1.15625.632812.160156 1.261719.277343 1.890625.355468 5.769531 1.921875 11.1875 5.164063 15.769531 9.746094 7.648437 7.648438 11.863281 17.820312 11.863281 28.640625-.003906 10.820313-4.21875 20.988281-11.867187 28.636719zm0 0"/></svg>