<?xml version="1.0" encoding="iso-8859-1"?>
<!-- Generator: Adobe Illustrator 19.0.0, SVG Export Plug-In . SVG Version: 6.00 Build 0)  -->
<svg version="1.1" id="Capa_1" xmlns="http://www.w3.org/2000/svg" xmlns:xlink="http://www.w3.org/1999/xlink" x="0px" y="0px"
	 viewBox="0 0 512 512" style="enable-background:new 0 0 512 512;" xml:space="preserve" fill="#0786ff">
<g>
	<g>
		<path d="M482,409.93h-55.429C421.749,351.635,375.209,305.016,317,300.183v-32.491h87.774c0,0,22.685,22.967,22.703,22.985
			c11.391,11.533,30.957,11.6,42.434,0.23c11.754-11.644,11.856-30.695,0.23-42.468l-46.707-47.288l19.966-19.78
			c4.831,2.603,10.254,4,15.896,4.031c0.063,0,0.126,0.001,0.188,0.001c9.013,0,17.498-3.492,23.909-9.844
			c13.322-13.198,13.439-34.791,0.263-48.133c-12.926-13.089-35.075-13.158-48.093-0.262c-10.852,10.753-12.938,27.075-6.215,39.969
			l-19.971,19.786l-60.535-61.287l19.966-19.781c4.831,2.602,10.253,4,15.894,4.031c0.064,0,0.127,0.001,0.19,0.001
			c9.013,0,17.498-3.492,23.909-9.844c13.323-13.199,13.439-34.791,0.262-48.132c-12.969-13.13-35.033-13.2-48.092-0.263
			c-10.852,10.753-12.938,27.075-6.215,39.969L334.784,111.4l-15.77-15.965c5.44-11.15,3.608-25.001-5.587-34.31
			c-11.366-11.507-31.009-11.552-42.434-0.232L128.809,201.76c-11.755,11.644-11.858,30.696-0.23,42.469
			c2.483,2.514,5.332,4.533,8.428,6.011l-16.757,16.602c-1.418-3.075-3.37-5.962-5.882-8.505
			c-11.459-11.603-30.879-11.678-42.433-0.23L27.147,302.48c-11.754,11.645-11.857,30.696-0.23,42.469
			c5.258,5.323,12.154,8.433,19.563,8.862c0.303,7.201,3.159,14.314,8.607,19.829c11.432,11.573,30.913,11.644,42.434,0.231
			l107.172-106.18H297v32.49c-58.211,4.833-104.76,51.451-109.581,109.747H30c-16.542,0-30,13.474-30,30.036
			C0,456.527,13.458,470,30,470h452c16.542,0,30-13.473,30-30.035C512,423.404,498.542,409.93,482,409.93z M449.637,141.381
			c5.401-5.352,14.481-5.27,19.792,0.108c5.434,5.502,5.387,14.404-0.104,19.848c-5.367,5.321-14.521,5.233-19.794-0.105
			C444.095,155.731,444.144,146.828,449.637,141.381z M375.044,65.862c5.419-5.37,14.452-5.297,19.792,0.108
			c5.435,5.502,5.387,14.405-0.105,19.849c-5.406,5.359-14.47,5.284-19.793-0.106C369.503,80.211,369.551,71.308,375.044,65.862z
			 M455.915,262.503c3.884,3.933,3.85,10.297-0.076,14.187c-3.866,3.83-10.322,3.785-14.135-0.077L320.028,153.424l14.225-14.094
			L455.915,262.503z M142.881,215.979c0,0,141.697-140.385,142.183-140.867c3.844-3.809,10.353-3.754,14.136,0.076
			c3.884,3.932,3.85,10.295-0.077,14.185c0,0-141.868,140.555-142.185,140.868c-3.832,3.797-10.365,3.739-14.134-0.076
			C138.92,226.232,138.954,219.868,142.881,215.979z M41.143,330.886c-3.885-3.933-3.851-10.297,0.076-14.187
			c0,0,44.698-44.284,44.788-44.373c3.857-3.821,10.334-3.769,14.134,0.076c3.884,3.932,3.85,10.297-0.076,14.186
			c0,0-44.679,44.265-44.788,44.374C51.448,334.756,44.908,334.696,41.143,330.886z M83.446,359.654
			c-3.83,3.794-10.365,3.739-14.135-0.077c-3.884-3.932-3.849-10.295,0.077-14.185l236.734-234.541l14.072,14.248
			C320.195,125.098,83.802,359.302,83.446,359.654z M224.888,247.683l80.928-80.179l79.195,80.179H224.888z M307,319.772
			c51.771,0,94.479,39.605,99.505,90.158h-20.126c-4.93-39.472-38.648-70.107-79.379-70.107c-40.731,0-74.449,30.635-79.379,70.107
			h-20.125C212.521,359.377,255.229,319.772,307,319.772z M366.153,409.93H247.847c4.771-28.393,29.473-50.098,59.153-50.098
			S361.381,381.537,366.153,409.93z M482,449.991H30c-5.514,0-10-4.497-10-10.025c0-5.529,4.486-10.026,10-10.026h452
			c5.514,0,10,4.497,10,10.026C492,445.493,487.514,449.991,482,449.991z"/>
	</g>
</g>
<g>
</g>
<g>
</g>
<g>
</g>
<g>
</g>
<g>
</g>
<g>
</g>
<g>
</g>
<g>
</g>
<g>
</g>
<g>
</g>
<g>
</g>
<g>
</g>
<g>
</g>
<g>
</g>
<g>
</g>
</svg>
