<?xml version="1.0"?>
<svg xmlns="http://www.w3.org/2000/svg" viewBox="0 0 64 64" width="512" height="512" fill="#0786ff"><g id="outline"><path d="M55,12a10,10,0,0,0-20,0,9.484,9.484,0,0,0,1,4.236V23H24.229A14.551,14.551,0,0,0,19,22a9.976,9.976,0,0,0-9,14.33V47.764A9.484,9.484,0,0,0,9,52a10,10,0,0,0,20,0,9.484,9.484,0,0,0-1-4.236V41H40.67A9.976,9.976,0,0,0,55,32a9.484,9.484,0,0,0-1-4.236V16.236A9.478,9.478,0,0,0,55,12ZM19,60a8.009,8.009,0,0,1-8-8,7.493,7.493,0,0,1,.889-3.542L12,48.242V39.129A9.963,9.963,0,0,0,19,42a14.551,14.551,0,0,0,5.229-1H26v7.242l.111.216A7.493,7.493,0,0,1,27,52,8.009,8.009,0,0,1,19,60Zm4.758-21-.216.111A12.124,12.124,0,0,1,19,40a8,8,0,0,1,0-16,12.124,12.124,0,0,1,4.542.889l.216.111H36v2.764A9.484,9.484,0,0,0,35,32a9.963,9.963,0,0,0,2.871,7ZM52.111,28.458A7.493,7.493,0,0,1,53,32a8,8,0,0,1-16,0,7.493,7.493,0,0,1,.889-3.542L38,28.242V15.758l-.111-.216A7.493,7.493,0,0,1,37,12a8,8,0,0,1,16,0,7.487,7.487,0,0,1-.889,3.542L52,15.758V28.242Z"/><path d="M19,26a6,6,0,1,0,6,6A6.006,6.006,0,0,0,19,26Zm0,10a4,4,0,1,1,4-4A4,4,0,0,1,19,36Z"/><path d="M45,26a6,6,0,1,0,6,6A6.006,6.006,0,0,0,45,26Zm0,10a4,4,0,1,1,4-4A4,4,0,0,1,45,36Z"/><path d="M45,6a6,6,0,1,0,6,6A6.006,6.006,0,0,0,45,6Zm0,10a4,4,0,1,1,4-4A4,4,0,0,1,45,16Z"/><circle cx="45" cy="12" r="2"/><path d="M19,46a6,6,0,1,0,6,6A6.006,6.006,0,0,0,19,46Zm0,10a4,4,0,1,1,4-4A4,4,0,0,1,19,56Z"/><circle cx="19" cy="52" r="2"/></g></svg>
