<?xml version="1.0" encoding="iso-8859-1"?>
<!-- Generator: Adobe Illustrator 19.0.0, SVG Export Plug-In . SVG Version: 6.00 Build 0)  -->
<svg xmlns="http://www.w3.org/2000/svg" xmlns:xlink="http://www.w3.org/1999/xlink" version="1.1" id="Capa_1" x="0px" y="0px" viewBox="0 0 512 512" style="enable-background:new 0 0 512 512;" xml:space="preserve" width="512" height="512" fill="#0786ff">
<g>
	<path d="M257.157,512c-0.577,0-1.154-0.05-1.725-0.149c-95.121-16.655-161.93-53.82-198.569-110.464   c-43.793-67.704-29.78-141.402-24.443-162.376c2.595-10.194,6.832-20.377,12.592-30.265c8.125-13.947,18.094-42.27,20.784-71.496   c4.178-45.41-10.72-70.681-23.952-83.884c-2.684-2.679-3.622-6.645-2.423-10.243c1.199-3.597,4.329-6.206,8.085-6.739   c65.265-9.247,128.198-22.464,169.501-31.923c26.227-6.007,53.96-5.947,80.196,0.179c40.292,9.404,101.951,22.545,166.887,31.745   c3.755,0.532,6.886,3.142,8.085,6.74c1.199,3.597,0.261,7.563-2.423,10.242c-13.234,13.203-28.13,38.474-23.952,83.883   c2.689,29.226,12.658,57.549,20.783,71.497c5.761,9.889,9.998,20.071,12.592,30.264c3.249,12.766,8.396,38.882,6.363,70.344   c-2.236,34.585-12.345,65.997-30.047,93.365c-36.16,55.903-102.309,92.62-196.61,109.131C258.312,511.95,257.734,512,257.157,512z    M67.81,53.61c14.877,22.218,21.042,51.371,17.904,85.473c-2.984,32.429-13.911,63.411-23.418,79.73   c-4.825,8.283-8.354,16.738-10.49,25.131c-4.832,18.989-17.54,85.681,21.853,146.582c33.274,51.442,95.011,85.527,183.498,101.319   c87.665-15.647,148.742-49.283,181.539-99.987c39.114-60.47,26.035-128.504,21.095-147.914c-2.135-8.392-5.665-16.847-10.49-25.129   c-9.507-16.319-20.434-47.302-23.418-79.732c-3.138-34.102,3.03-63.258,17.907-85.476c-59.116-9.061-114.08-20.841-151.133-29.489   c-23.289-5.437-47.904-5.491-71.184-0.159C183.497,32.656,127.377,44.504,67.81,53.61z"/>
	<path d="M252.298,454.755c-0.577,0-1.154-0.05-1.725-0.149c-67.531-11.824-115.604-39.202-142.881-81.374   c-36.05-55.732-22.674-118.289-19.627-130.263c1.431-5.62,3.74-10.484,5.972-15.186c1.038-2.187,2.02-4.253,2.871-6.314   c2.072-5.008,4.285-9.903,6.424-14.636c13.042-28.848,25.36-56.097,11.611-117.158c-0.59-2.619-0.102-5.366,1.356-7.622   c1.457-2.255,3.76-3.83,6.39-4.37l8.662-1.779c46.027-9.462,89.503-18.4,120.19-20.727c0.504-0.037,1.008-0.037,1.512,0   c30.732,2.329,74.3,11.286,120.427,20.768l8.461,1.738c2.63,0.54,4.933,2.115,6.39,4.37c1.457,2.256,1.945,5.003,1.356,7.622   c-13.748,61.062-1.431,88.31,11.611,117.158c2.14,4.734,4.352,9.628,6.423,14.636c0.853,2.061,1.834,4.127,2.872,6.314   c2.233,4.702,4.541,9.566,5.972,15.186c3.046,11.969,16.417,74.505-19.635,130.244c-27.285,42.183-75.366,69.567-142.909,81.394   C253.453,454.705,252.876,454.755,252.298,454.755z M136.543,95.253c11.69,60.809-1.858,90.784-14.983,119.817   c-2.17,4.8-4.219,9.333-6.168,14.043c-1.047,2.532-2.185,4.929-3.285,7.247c-1.906,4.015-3.706,7.807-4.657,11.54   c-2.688,10.562-14.498,65.716,17.037,114.469c23.905,36.958,66.903,61.254,127.812,72.229   c60.919-10.977,103.927-35.28,127.839-72.249c31.539-48.759,19.732-103.892,17.045-114.448c-0.95-3.734-2.75-7.526-4.657-11.541   c-1.101-2.318-2.238-4.715-3.286-7.247c-1.947-4.709-3.996-9.243-6.167-14.043c-13.125-29.033-26.673-59.008-14.983-119.817   c-44.591-9.166-86.65-17.774-115.792-20.076C223.158,77.479,181.111,86.091,136.543,95.253z"/>
	<path d="M294.541,235.986c-1.592,0-3.19-0.38-4.653-1.148l-37.59-19.762l-37.589,19.762c-3.368,1.77-7.452,1.476-10.532-0.762   c-3.079-2.237-4.622-6.029-3.979-9.781l7.179-41.855l-30.411-29.642c-2.726-2.657-3.706-6.631-2.53-10.251   c1.177-3.62,4.306-6.259,8.074-6.807l42.026-6.106l18.794-38.081c1.685-3.413,5.162-5.575,8.969-5.575s7.283,2.161,8.969,5.575   l18.795,38.081l42.027,6.106c3.767,0.548,6.896,3.187,8.073,6.807c1.176,3.62,0.195,7.594-2.53,10.251L297.22,182.44l7.179,41.855   c0.644,3.752-0.899,7.543-3.979,9.781C298.678,235.342,296.615,235.986,294.541,235.986z M252.298,193.777   c1.599,0,3.197,0.383,4.654,1.148l24.308,12.779l-4.643-27.065c-0.556-3.244,0.52-6.554,2.876-8.852l19.666-19.168l-27.177-3.948   c-3.257-0.474-6.073-2.52-7.53-5.471l-12.153-24.624L240.146,143.2c-1.457,2.951-4.273,4.997-7.531,5.471l-27.176,3.948   l19.666,19.168c2.357,2.298,3.432,5.608,2.876,8.852l-4.643,27.065l24.307-12.779C249.101,194.16,250.7,193.777,252.298,193.777z"/>
	<path d="M186.232,360.593c-3.213,0.001-6.271-1.551-8.164-4.226l-16.041-22.684l-27.781,0.355c-3.836,0.081-7.31-2.067-9.039-5.459   c-1.728-3.392-1.381-7.471,0.896-10.521l16.617-22.266l-8.923-26.31c-1.222-3.606-0.292-7.592,2.4-10.284   c2.692-2.693,6.681-3.622,10.283-2.4l26.312,8.922l22.267-16.616c3.05-2.277,7.13-2.624,10.521-0.896   c3.392,1.729,5.508,5.232,5.459,9.039l-0.355,27.78l22.684,16.042c3.108,2.197,4.699,5.969,4.103,9.729   c-0.596,3.76-3.274,6.855-6.909,7.985l-26.532,8.247l-8.247,26.531c-1.13,3.635-4.225,6.313-7.985,6.909   C187.275,360.553,186.752,360.593,186.232,360.593z M167.156,313.616c3.244,0,6.29,1.573,8.166,4.226l7.377,10.432l3.793-12.201   c0.977-3.143,3.438-5.604,6.581-6.58l12.201-3.793l-10.432-7.376c-2.687-1.9-4.267-5.002-4.225-8.293l0.163-12.775l-10.24,7.641   c-2.637,1.969-6.076,2.513-9.192,1.456l-12.101-4.104l4.104,12.1c1.057,3.117,0.512,6.555-1.456,9.193l-7.641,10.239l12.775-0.163   C167.071,313.616,167.114,313.616,167.156,313.616z"/>
	<path d="M316.963,360.593c-0.52,0-1.043-0.04-1.567-0.123c-3.76-0.596-6.855-3.274-7.985-6.909l-8.247-26.531l-26.532-8.247   c-3.635-1.13-6.313-4.225-6.909-7.985s0.995-7.532,4.103-9.73l22.685-16.041l-0.355-27.78c-0.049-3.806,2.068-7.31,5.459-9.039   c3.392-1.727,7.471-1.381,10.521,0.896l22.267,16.616l26.312-8.922c3.602-1.222,7.591-0.292,10.283,2.4   c2.692,2.692,3.621,6.678,2.4,10.284l-8.923,26.31l16.617,22.266c2.277,3.05,2.623,7.129,0.896,10.521   c-1.729,3.392-5.22,5.528-9.039,5.459l-27.781-0.355l-16.041,22.684C323.234,359.042,320.176,360.593,316.963,360.593z    M297.922,305.7l12.201,3.793c3.143,0.977,5.604,3.438,6.581,6.58l3.793,12.201l7.377-10.432c1.876-2.651,4.922-4.226,8.166-4.226   c0.043,0,0.085,0,0.128,0.001l12.775,0.163l-7.641-10.239c-1.968-2.638-2.513-6.076-1.456-9.193l4.104-12.1l-12.101,4.104   c-3.117,1.057-6.553,0.513-9.192-1.456l-10.239-7.641l0.163,12.775c0.042,3.291-1.538,6.393-4.225,8.293L297.922,305.7z"/>
	<path d="M252.298,379.653c-5.523,0-10.001-4.478-10.001-10v-30.002c0-5.523,4.478-10,10.001-10s10.001,4.478,10.001,10v30.002   C262.299,375.176,257.821,379.653,252.298,379.653z"/>
	<path d="M252.318,414.655c-5.523,0-10.006-4.478-10.006-10s4.473-10.001,9.996-10.001h0.01c5.524,0,10.001,4.478,10.001,10.001   S257.842,414.655,252.318,414.655z"/>
</g>















</svg>
