<svg height="479pt" viewBox="0 -3 479.97703 479" width="479pt" xmlns="http://www.w3.org/2000/svg" fill="#0786ff"><path d="m415.976562 312.488281h-299.199218l34.03125-176h9.167968c4.417969 0 8-3.582031 8-8v-16h24c4.417969 0 8-3.582031 8-8v-32c0-4.417969-3.582031-8-8-8h-84.6875l-61.65625-61.65625c-3.125-3.125-8.1875-3.125-11.3125 0l-24 24c-3.121093 3.121094-3.121093 8.1875 0 11.3125l72 72c1.5 1.5 3.535157 2.34375 5.65625 2.34375v16c.039063 3.832031 2.820313 7.085938 6.601563 7.71875l-34.121094 176.457031c-34.59375 1.894532-61.386719 30.992188-60.4335935 65.625.9531245 34.628907 29.3085935 62.207032 63.9531245 62.199219v24c0 4.417969 3.582032 8 8 8h48c4.417969 0 8-3.582031 8-8v-24h224v24c0 4.417969 3.582032 8 8 8h48c4.417969 0 8-3.582031 8-8v-24c35.347657 0 64-28.65625 64-64 0-35.347656-28.652343-64-64-64zm-388.6875-280 12.6875-12.691406 58.34375 58.347656c1.5 1.5 3.535157 2.34375 5.65625 2.34375h80v16h-92.6875zm124.6875 80v8h-48v-8zm-41.160156 24h23.703125l-34.023437 176h-23.71875zm1.160156 320h-32v-16h32zm288 0h-32v-16h32zm16-32h-352c-26.507812 0-48-21.492187-48-48 0-26.511719 21.492188-48 48-48h352c26.511719 0 48 21.488281 48 48 0 26.507813-21.488281 48-48 48zm0 0"/><path d="m415.976562 352.488281h-352c-13.253906 0-24 10.742188-24 24 0 13.253907 10.746094 24 24 24h352c13.253907 0 24-10.746093 24-24 0-13.257812-10.746093-24-24-24zm-360 24c0-4.417969 3.582032-8 8-8 4.417969 0 8 3.582031 8 8s-3.582031 8-8 8c-4.417968 0-8-3.582031-8-8zm30.527344 8c1.964844-5.152343 1.964844-10.847656 0-16h306.945313c-1.964844 5.152344-1.964844 10.847657 0 16zm329.472656 0c-4.417968 0-8-3.582031-8-8s3.582032-8 8-8c4.417969 0 8 3.582031 8 8s-3.582031 8-8 8zm0 0"/></svg>